<?xml version="1.0" standalone="no"?>
<!DOCTYPE svg PUBLIC "-//W3C//DTD SVG 20010904//EN"
 "http://www.w3.org/TR/2001/REC-SVG-20010904/DTD/svg10.dtd">
<svg version="1.0" xmlns="http://www.w3.org/2000/svg"
width="15.000000pt" height="15.000000pt" viewBox="0 0 512.000000 512.000000"
 preserveAspectRatio="xMidYMid meet">

<g transform="translate(0.000000,512.000000) scale(0.100000,-0.100000)"
fill="#000000" stroke="none">
<path d="M1253 4675 c-174 -47 -319 -185 -375 -354 -19 -58 -22 -96 -26 -320
-5 -277 0 -316 45 -350 48 -38 124 -22 155 32 9 16 14 103 18 297 5 263 6 277
28 318 35 66 88 119 150 149 l57 28 948 3 947 2 0 -386 c0 -420 1 -428 57
-453 16 -7 153 -11 409 -11 l384 0 -2 -1382 -3 -1383 -23 -43 c-35 -66 -88
-119 -150 -149 l-57 -28 -1255 0 -1255 0 -57 28 c-62 30 -115 83 -150 149 -23
42 -23 50 -28 428 -5 423 -4 416 -68 446 -61 29 -135 -12 -148 -81 -3 -18 -4
-194 -2 -391 5 -405 9 -431 86 -550 70 -106 162 -177 286 -219 l75 -25 1259 0
c1252 0 1260 0 1328 21 168 51 299 180 357 349 l22 65 3 1430 c2 957 0 1442
-7 1465 -8 27 -114 139 -458 483 l-449 447 -1024 -1 c-848 0 -1034 -3 -1077
-14z m2412 -595 l240 -240 -248 0 -247 0 0 240 c0 132 3 240 8 240 4 0 115
-108 247 -240z"/>
<path d="M2177 3390 c-35 -27 -51 -78 -37 -116 6 -16 118 -136 248 -266 l237
-238 -851 0 c-838 0 -852 0 -877 -20 -38 -30 -52 -80 -33 -123 29 -70 -19 -67
918 -67 l843 0 -237 -237 c-130 -131 -242 -251 -248 -267 -15 -41 4 -93 44
-117 37 -23 67 -24 104 -5 42 23 680 667 692 700 7 20 7 38 0 60 -7 21 -127
148 -353 374 -338 338 -343 342 -383 342 -26 0 -51 -7 -67 -20z"/>
</g>
</svg>
