<?xml version="1.0" standalone="no"?>
<!DOCTYPE svg PUBLIC "-//W3C//DTD SVG 20010904//EN"
 "http://www.w3.org/TR/2001/REC-SVG-20010904/DTD/svg10.dtd">
<svg version="1.0" xmlns="http://www.w3.org/2000/svg"
 width="15.000000pt" height="15.000000pt" viewBox="0 0 24.000000 24.000000"
 preserveAspectRatio="xMidYMid meet">

<g transform="translate(0.000000,24.000000) scale(0.100000,-0.100000)"
fill="#000000" stroke="none">
<path d="M63 178 c-35 -35 -63 -68 -63 -74 0 -13 92 -104 106 -104 5 0 38 29
73 64 63 64 64 65 59 111 -3 25 -8 49 -12 52 -3 3 -27 8 -53 10 -48 5 -49 4
-110 -59z m155 -7 c3 -41 0 -47 -50 -98 -29 -29 -57 -53 -62 -53 -13 0 -86 71
-86 84 0 6 24 34 52 64 50 50 55 53 98 50 l45 -3 3 -44z"/>
<path d="M153 184 c-3 -8 -1 -20 5 -26 16 -16 42 -2 42 22 0 24 -38 28 -47 4z
m31 -15 c-3 -5 -10 -7 -15 -3 -5 3 -7 10 -3 15 3 5 10 7 15 3 5 -3 7 -10 3
-15z"/>
</g>
</svg>
