<svg xmlns="http://www.w3.org/2000/svg" width="81" height="60" viewBox="0 0 81 60" fill="none">
    <script xmlns="" />
    <path fill-rule="evenodd" clip-rule="evenodd"
        d="M77.6115 14.2163C79.4635 14.2163 80.9648 15.7176 80.9648 17.5696C80.9648 19.4216 79.4635 20.9229 77.6115 20.9229H58.4499C60.3018 20.9229 61.8032 22.4242 61.8032 24.2762C61.8032 26.1282 60.3018 27.6295 58.4499 27.6295H68.9888C70.8408 27.6295 72.3421 29.1308 72.3421 30.9828C72.3421 32.8347 70.8408 34.3361 68.9888 34.3361H64.1151C61.78 34.3361 59.887 35.8374 59.887 37.6894C59.887 38.924 60.8451 40.0418 62.7612 41.0427C64.6132 41.0427 66.1145 42.544 66.1145 44.3959C66.1145 46.2479 64.6132 47.7492 62.7612 47.7492H23.0008C21.1488 47.7492 19.6475 46.2479 19.6475 44.3959C19.6475 42.544 21.1488 41.0427 23.0008 41.0427H4.31814C2.46616 41.0427 0.964844 39.5413 0.964844 37.6894C0.964844 35.8374 2.46616 34.3361 4.31814 34.3361H23.4798C25.3318 34.3361 26.8331 32.8347 26.8331 30.9828C26.8331 29.1308 25.3318 27.6295 23.4798 27.6295H11.5038C9.65179 27.6295 8.15047 26.1282 8.15047 24.2762C8.15047 22.4242 9.65179 20.9229 11.5038 20.9229H30.6654C28.8135 20.9229 27.3121 19.4216 27.3121 17.5696C27.3121 15.7176 28.8135 14.2163 30.6654 14.2163H77.6115ZM77.6115 27.6295C79.4635 27.6295 80.9648 29.1308 80.9648 30.9828C80.9648 32.8347 79.4635 34.3361 77.6115 34.3361C75.7596 34.3361 74.2583 32.8347 74.2583 30.9828C74.2583 29.1308 75.7596 27.6295 77.6115 27.6295Z"
        fill="#F6F7F7" />
    <g clip-path="url(#clip0_8138_98760)">
        <mask id="mask0_8138_98760" style="mask-type:luminance" maskUnits="userSpaceOnUse" x="15"
            y="0" width="60" height="60">
            <path d="M15.7812 0.360355H74.7812V59.3604H15.7812V0.360355Z" fill="white" />
        </mask>
        <g mask="url(#mask0_8138_98760)">
            <path
                d="M27.7969 23.9805V9.65453C27.7969 7.41564 29.6118 5.6007 31.8507 5.6007H33.0094H37.6777"
                stroke="#1A2F36" stroke-width="1.56784" stroke-miterlimit="10"
                stroke-linecap="round" stroke-linejoin="round" />
            <path
                d="M27.7969 23.9805V9.65453C27.7969 7.41564 29.6118 5.6007 31.8507 5.6007H33.0094H37.6777"
                stroke="white" stroke-opacity="0.76" stroke-width="1.56784" stroke-miterlimit="10"
                stroke-linecap="round" stroke-linejoin="round" />
            <path
                d="M36.9863 5.60043H56.2858C58.5247 5.60043 60.3395 7.41537 60.3395 9.65414V16.0737"
                stroke="#1A2F36" stroke-width="1.56784" stroke-miterlimit="10"
                stroke-linecap="round" stroke-linejoin="round" />
            <path
                d="M36.9863 5.60043H56.2858C58.5247 5.60043 60.3395 7.41537 60.3395 9.65414V16.0737"
                stroke="white" stroke-opacity="0.76" stroke-width="1.56784" stroke-miterlimit="10"
                stroke-linecap="round" stroke-linejoin="round" />
            <path
                d="M41.3848 23.9803V20.1277C41.3848 17.8889 43.1997 16.074 45.4385 16.074H69.8724C72.1112 16.074 73.9261 17.8889 73.9261 20.1277V37.5633C73.9261 39.8021 72.1112 41.6171 69.8724 41.6171H69.9806C69.3852 41.6171 68.8854 42.0712 68.8356 42.6644C68.7714 43.425 68.759 44.492 69.0172 45.4931C69.1391 45.9658 68.6444 46.3675 68.2049 46.1551C67.1076 45.6247 65.5473 44.5204 64.6394 42.3207C64.4629 41.8933 64.0427 41.6171 63.5803 41.6171H49.6392"
                fill="white" />
            <path
                d="M41.3848 23.9803V20.1277C41.3848 17.8889 43.1997 16.074 45.4385 16.074H69.8724C72.1112 16.074 73.9261 17.8889 73.9261 20.1277V37.5633C73.9261 39.8021 72.1112 41.6171 69.8724 41.6171H69.9806C69.3852 41.6171 68.8854 42.0712 68.8356 42.6644C68.7714 43.425 68.759 44.492 69.0172 45.4931C69.1391 45.9658 68.6444 46.3675 68.2049 46.1551C67.1076 45.6247 65.5473 44.5204 64.6394 42.3207C64.4629 41.8933 64.0427 41.6171 63.5803 41.6171H49.6392"
                stroke="#1A2F36" stroke-width="1.56784" stroke-miterlimit="10"
                stroke-linecap="round" stroke-linejoin="round" />
            <path
                d="M41.3848 23.9803V20.1277C41.3848 17.8889 43.1997 16.074 45.4385 16.074H69.8724C72.1112 16.074 73.9261 17.8889 73.9261 20.1277V37.5633C73.9261 39.8021 72.1112 41.6171 69.8724 41.6171H69.9806C69.3852 41.6171 68.8854 42.0712 68.8356 42.6644C68.7714 43.425 68.759 44.492 69.0172 45.4931C69.1391 45.9658 68.6444 46.3675 68.2049 46.1551C67.1076 45.6247 65.5473 44.5204 64.6394 42.3207C64.4629 41.8933 64.0427 41.6171 63.5803 41.6171H49.6392"
                stroke="white" stroke-opacity="0.76" stroke-width="1.56784" stroke-miterlimit="10"
                stroke-linecap="round" stroke-linejoin="round" />
            <path d="M52.1699 22.3721L60.265 22.3721L68.3601 22.3721" stroke="#1A2F36"
                stroke-width="1.56784" stroke-miterlimit="10" stroke-linecap="round"
                stroke-linejoin="round" />
            <path d="M52.1699 22.3721L60.265 22.3721L68.3601 22.3721" stroke="white"
                stroke-opacity="0.76" stroke-width="1.56784" stroke-miterlimit="10"
                stroke-linecap="round" stroke-linejoin="round" />
            <path d="M54.3164 26.5298L61.3378 26.5298L68.3592 26.5298" stroke="#1A2F36"
                stroke-width="1.56784" stroke-miterlimit="10" stroke-linecap="round"
                stroke-linejoin="round" />
            <path d="M54.3164 26.5298L61.3378 26.5298L68.3592 26.5298" stroke="white"
                stroke-opacity="0.76" stroke-width="1.56784" stroke-miterlimit="10"
                stroke-linecap="round" stroke-linejoin="round" />
            <path d="M54.3164 30.5928L61.3378 30.5928L68.3592 30.5928" stroke="#1A2F36"
                stroke-width="1.56784" stroke-miterlimit="10" stroke-linecap="round"
                stroke-linejoin="round" />
            <path d="M54.3164 30.5928L61.3378 30.5928L68.3592 30.5928" stroke="white"
                stroke-opacity="0.76" stroke-width="1.56784" stroke-miterlimit="10"
                stroke-linecap="round" stroke-linejoin="round" />
            <path d="M54.5781 34.7974L62.4525 34.7974" stroke="#1A2F36" stroke-width="1.56784"
                stroke-miterlimit="10" stroke-linecap="round" stroke-linejoin="round" />
            <path d="M54.5781 34.7974L62.4525 34.7974" stroke="white" stroke-opacity="0.76"
                stroke-width="1.56784" stroke-miterlimit="10" stroke-linecap="round"
                stroke-linejoin="round" />
            <path d="M56.9778 41.6172H49.1777" stroke="#1A2F36" stroke-width="1.56784"
                stroke-miterlimit="10" stroke-linecap="round" stroke-linejoin="round" />
            <path d="M56.9778 41.6172H49.1777" stroke="white" stroke-opacity="0.76"
                stroke-width="1.56784" stroke-miterlimit="10" stroke-linecap="round"
                stroke-linejoin="round" />
            <path d="M33.6699 11.7627H54.4665" stroke="#1A2F36" stroke-width="1.56784"
                stroke-miterlimit="10" stroke-linecap="round" stroke-linejoin="round" />
            <path d="M33.6699 11.7627H54.4665" stroke="white" stroke-opacity="0.76"
                stroke-width="1.56784" stroke-miterlimit="10" stroke-linecap="round"
                stroke-linejoin="round" />
            <path d="M33.6699 15.5239H38.7455" stroke="#1A2F36" stroke-width="1.56784"
                stroke-miterlimit="10" stroke-linecap="round" stroke-linejoin="round" />
            <path d="M33.6699 15.5239H38.7455" stroke="white" stroke-opacity="0.76"
                stroke-width="1.56784" stroke-miterlimit="10" stroke-linecap="round"
                stroke-linejoin="round" />
            <path
                d="M45.1263 23.9803H20.6924C18.4536 23.9803 16.6387 25.7952 16.6387 28.034V45.4695C16.6387 47.7084 18.4536 49.5234 20.6924 49.5234H20.5841C21.1795 49.5234 21.6793 49.9775 21.7293 50.5707C21.7935 51.3313 21.8058 52.3982 21.5477 53.3994C21.4257 53.8721 21.9204 54.2738 22.3599 54.0613C23.4572 53.5309 25.0175 52.4266 25.9254 50.227C26.1018 49.7996 26.5221 49.5234 26.9844 49.5234H45.1263C47.3651 49.5234 49.1801 47.7084 49.1801 45.4695V28.034C49.1801 25.7952 47.3651 23.9803 45.1263 23.9803Z"
                fill="white" />
            <path
                d="M45.1263 23.9803H20.6924C18.4536 23.9803 16.6387 25.7952 16.6387 28.034V45.4695C16.6387 47.7084 18.4536 49.5234 20.6924 49.5234H20.5841C21.1795 49.5234 21.6793 49.9775 21.7293 50.5707C21.7935 51.3313 21.8058 52.3982 21.5477 53.3994C21.4257 53.8721 21.9204 54.2738 22.3599 54.0613C23.4572 53.5309 25.0175 52.4266 25.9254 50.227C26.1018 49.7996 26.5221 49.5234 26.9844 49.5234H45.1263C47.3651 49.5234 49.1801 47.7084 49.1801 45.4695V28.034C49.1801 25.7952 47.3651 23.9803 45.1263 23.9803Z"
                stroke="#1A2F36" stroke-width="1.56784" stroke-miterlimit="10"
                stroke-linecap="round" stroke-linejoin="round" />
            <path
                d="M45.1263 23.9803H20.6924C18.4536 23.9803 16.6387 25.7952 16.6387 28.034V45.4695C16.6387 47.7084 18.4536 49.5234 20.6924 49.5234H20.5841C21.1795 49.5234 21.6793 49.9775 21.7293 50.5707C21.7935 51.3313 21.8058 52.3982 21.5477 53.3994C21.4257 53.8721 21.9204 54.2738 22.3599 54.0613C23.4572 53.5309 25.0175 52.4266 25.9254 50.227C26.1018 49.7996 26.5221 49.5234 26.9844 49.5234H45.1263C47.3651 49.5234 49.1801 47.7084 49.1801 45.4695V28.034C49.1801 25.7952 47.3651 23.9803 45.1263 23.9803Z"
                stroke="white" stroke-opacity="0.76" stroke-width="1.56784" stroke-miterlimit="10"
                stroke-linecap="round" stroke-linejoin="round" />
            <path
                d="M24.5789 31.4621C23.8578 32.4645 23.5298 33.6963 23.5198 34.9217C23.4994 37.3784 24.7035 39.4672 26.5224 41.0945C27.9001 42.327 29.2291 42.9144 30.8163 43.8592C30.8906 43.9034 31.9644 44.4919 32.5433 44.8196C32.7695 44.9475 33.0449 44.9475 33.2712 44.8196C33.8501 44.4919 34.9237 43.9034 34.9982 43.8592C36.5853 42.9144 37.9144 42.327 39.2919 41.0945C41.111 39.4672 42.3151 37.3784 42.2947 34.9217C42.2846 33.6963 41.9566 32.4645 41.2356 31.4621C39.5924 29.1779 36.3711 28.8146 34.2178 30.814C33.6884 31.3057 33.3561 31.8312 33.1586 32.2241C33.0545 32.4313 32.76 32.4313 32.6559 32.2241C32.4583 31.8312 32.126 31.3057 31.5964 30.814C30.5366 29.8298 29.2179 29.4182 27.956 29.5263"
                stroke="#1A2F36" stroke-width="1.56784" stroke-miterlimit="10"
                stroke-linecap="round" stroke-linejoin="round" />
            <path
                d="M24.5789 31.4621C23.8578 32.4645 23.5298 33.6963 23.5198 34.9217C23.4994 37.3784 24.7035 39.4672 26.5224 41.0945C27.9001 42.327 29.2291 42.9144 30.8163 43.8592C30.8906 43.9034 31.9644 44.4919 32.5433 44.8196C32.7695 44.9475 33.0449 44.9475 33.2712 44.8196C33.8501 44.4919 34.9237 43.9034 34.9982 43.8592C36.5853 42.9144 37.9144 42.327 39.2919 41.0945C41.111 39.4672 42.3151 37.3784 42.2947 34.9217C42.2846 33.6963 41.9566 32.4645 41.2356 31.4621C39.5924 29.1779 36.3711 28.8146 34.2178 30.814C33.6884 31.3057 33.3561 31.8312 33.1586 32.2241C33.0545 32.4313 32.76 32.4313 32.6559 32.2241C32.4583 31.8312 32.126 31.3057 31.5964 30.814C30.5366 29.8298 29.2179 29.4182 27.956 29.5263"
                stroke="white" stroke-opacity="0.76" stroke-width="1.56784" stroke-miterlimit="10"
                stroke-linecap="round" stroke-linejoin="round" />
        </g>
    </g>
    <defs>
        <clipPath id="clip0_8138_98760">
            <rect width="59" height="59" fill="white" transform="translate(15.7812 0.360352)" />
        </clipPath>
    </defs>
    <script xmlns="" />
</svg>