<svg width="128" height="128" viewBox="0 0 128 128" fill="none" xmlns="http://www.w3.org/2000/svg">
<path d="M58.5959 48.2132C63.1658 48.2132 66.9048 44.4743 66.9048 39.9044C66.9048 35.3346 63.1658 31.5956 58.5959 31.5956C54.0261 31.5956 50.2871 35.3346 50.2871 39.9044C50.2871 44.4743 54.0261 48.2132 58.5959 48.2132Z" fill="#518EF8"/>
<path d="M99.7236 14.147H28.2676C20.3742 14.147 14.1426 20.794 14.1426 28.272V99.728C14.1426 107.206 20.3742 113.853 28.2676 113.853H100.139C107.617 113.853 114.264 107.621 114.264 99.728C114.264 -21.581 114.264 54.4448 114.264 28.272C113.849 20.794 107.617 14.147 99.7236 14.147ZM28.2676 22.4558H100.139C103.047 22.4558 105.54 25.3639 105.54 28.272V76.4632L92.2456 54.0294C90.9993 51.9522 88.5066 50.2904 85.5985 50.2904C83.1059 50.2904 80.1978 51.5367 78.9515 53.6139L62.7492 75.6323L49.4551 61.9228C47.3779 59.8456 45.3007 59.0147 43.2235 59.0147C41.1463 59.0147 38.6536 60.261 37.4073 61.9228L22.4514 79.7868V28.272C22.4514 25.3639 24.9441 22.4558 28.2676 22.4558Z" fill="#518EF8"/>
</svg>