<svg version="1.0" style="background-color: #f3f3f3;" xmlns="http://www.w3.org/2000/svg" width="618.667"  height="618.667" viewBox="0 0 464 464"><path d="M231.1 106c-10.1 5-18.5 9-18.6 9-.1 0-11.9 5.7-26.1 12.6-14.3 6.9-27.9 13.5-30.4 14.6-5.7 2.6-50.1 24-56 27-2.5 1.3-4.6 3.1-4.8 4-.4 2 33.4 77.9 35.1 79 1.5 1 2.8.6 4-1.3.8-1.3-3.2-11-18.9-45.4-.7-1.7-4.1-9.1-7.4-16.5l-6-13.5 14.3-7c7.8-3.9 20.5-10 28.2-13.7 7.7-3.7 22.6-10.8 33-15.9 10.5-5 24.4-11.7 31-14.9 6.6-3.2 18.2-8.7 25.8-12.4 7.5-3.6 14-6.6 14.5-6.6.4 0 4.7 9 9.6 20.1 5 11.1 9.6 20.3 10.4 20.6.7.3 2.1-.1 2.9-1 1.5-1.4.8-3.5-7.6-22.4-10-22.4-11.5-25.3-13.4-25.3-.6.1-9.5 4.1-19.6 9z"/><path d="M145.2 160.2c-.9.9-1.2 16.2-1.2 62.7 0 33.9.4 62.2.8 62.9.7 1 18.8 1.2 87.3 1l86.4-.3.3-62.4c.1-45.2-.1-62.8-.9-63.7-1.6-1.9-170.8-2.1-172.7-.2zM313 202.1c0 34.3-.1 36.1-1.7 34.8-1-.8-8.3-7.3-16.3-14.6-17.5-15.9-19.6-17.5-21.4-17.1-1.3.3-20.5 18.3-50.2 47-4.9 4.9-9.3 8.8-9.7 8.8-.4 0-9.6-6.5-20.4-14.5-10.8-8-20.1-14.5-20.7-14.5-.6 0-5.7 4.3-11.2 9.5-5.6 5.2-10.4 9.2-10.7 8.8-.7-.6-1-83.7-.3-84.4.2-.2 36.9-.3 81.5-.1l81.1.2v36.1zm-19 28.1 19 17.1V281l-81.2-.2-81.3-.3-.3-9.8c-.3-9.1-.1-9.9 2.1-12 1.3-1.2 6.2-5.9 10.9-10.5 4.7-4.5 9-8.2 9.6-8.2.6 0 9.9 6.6 20.8 14.6 15.3 11.3 20.1 14.4 21.5 13.7.9-.4 11.6-10.3 23.6-21.9 31.5-30.4 34.7-33.4 35.6-33.4.4 0 9.3 7.7 19.7 17.2z"/><path d="M196.6 181.5c-4.9 1.7-9 5.7-11.7 11.2-3.1 6.5-2.4 15.7 1.7 21.5 5.7 8.1 14 11.3 22.8 8.8 15.8-4.4 20.8-24.5 9.1-36.6-5.8-6.1-13.7-7.9-21.9-4.9zm16.2 8.2c10.2 7.6 7.2 23.2-5.3 27.3-4.9 1.6-10.6-.2-14.4-4.5-5.4-6.2-5.3-15.1.2-21.2 5.2-5.6 13.1-6.3 19.5-1.6zM90.7 315.7c-.4.3-.7 5.5-.7 11.5 0 10.1.1 10.8 2 10.8 1.7 0 1.9-.8 2.2-7.3l.3-7.2 4 7.2c4.2 7.7 6.9 9.4 8.1 4.9.3-1.3.4-6.4.2-11.3-.3-7.4-.6-8.8-2.1-9.1-1.5-.3-1.7.5-1.7 6.8 0 4.2-.4 6.9-.9 6.5-.6-.3-2.4-3.1-4.2-6.3-3.9-6.7-5.5-8.2-7.2-6.5zM114.3 316.2c-2.1 1-2.3 1.8-2.3 10.3 0 10.8.7 11.8 7.7 11.8 6.7 0 8.1-2.1 7.9-11.9-.1-6.7-.4-7.8-2.5-9.5-2.5-2.1-7.3-2.4-10.8-.7zm8.5 3c1.2 1.2 1.7 11.4.6 14.2-.4 1-1.8 1.6-3.9 1.6-3.9 0-4.5-1.1-4.5-9 0-4.6.4-6.1 1.8-6.9 2.3-1.4 4.5-1.4 6 .1zM140 326.5c0 10.8.1 11.5 2 11.5 1.7 0 2-.7 2-4 0-3.8.2-4 3-4 4.9 0 7.9-2 8.6-5.5 1.1-6.3-2.6-9.5-11.2-9.5H140v11.5zm11.3-6.8c1.1.7.8 4.8-.5 6.1-.7.7-2.5 1.2-4 1.2-2.7 0-2.8-.2-2.8-4.6v-4.6l3.3.7c1.7.4 3.5.9 4 1.2zM161 326.5c0 11 .1 11.5 2.1 11.5 1.7 0 2-.6 1.9-3.3-.3-5.1-.1-5.7 1.9-5.7 1.3 0 2.5 1.4 3.8 4.5 1.1 2.9 2.4 4.5 3.6 4.5 2.1 0 2.1 0 .1-5-1.5-3.8-1.5-4.2 0-5.3 1.6-1.2 2-3.1 1.8-7.9-.2-2.2-.9-2.9-3.9-3.7-2.1-.6-5.5-1.1-7.5-1.1H161v11.5zm9.4-7.5c4.9 1.8 2.7 7-3 7-3.1 0-3.2-.1-2.9-3.8.2-2 .4-3.8.4-4 .2-.5 3.1-.1 5.5.8zM184 316.3c-2.4 1.2-2.5 1.8-2.8 10.3l-.3 9.1 3.3 1.6c3.3 1.5 8.6 1.2 11.7-.7.7-.5 1.1-4.1 1.1-9.6 0-8-.2-9-2.2-10.4-2.7-1.9-7.4-2-10.8-.3zm7.8 2.6c.9.5 1.2 2.9 1 8.2l-.3 7.4h-7l-.3-6.8c-.3-7.1.7-9.7 3.7-9.7.9 0 2.2.4 2.9.9zM202.7 315.6c-.3.5-.4 5.6-.4 11.4l.2 10.5 3 .5c3.7.7 10.3-.4 11.8-1.9.6-.6 1.3-4.4 1.5-8.4.5-9.7-.9-11.6-9.4-12.4-3.4-.3-6.4-.2-6.7.3zm10.1 3.3c1.6 1 2.4 13.1 1 14.8-.6.7-2.6 1.3-4.4 1.3H206v-7.8c0-4.3.3-8.2.7-8.5.9-1 4.5-.8 6.1.2zM224 325.6v10.5l3.6 1.5c4 1.7 7.8 1.2 10.7-1.3 1.4-1.3 1.7-3.3 1.7-11.5 0-9.1-.1-9.8-2-9.8s-2 .7-2 9.5c0 9-.1 9.6-2.2 10.4-1.3.5-3.1.5-4-.1-1.5-.7-1.8-2.3-1.8-10.3 0-8.8-.1-9.5-2-9.5s-2 .7-2 10.6zM248.5 316.2c-3.1 1.8-3.5 2.8-3.5 10.4 0 9.1 1.8 11.9 7.7 11.8 5.4-.2 8.3-1.9 8.3-4.9 0-3.2-3.5-3.5-4.3-.4-.4 1.6-1.2 2-3.9 1.7l-3.3-.3-.3-6.8c-.3-7.6.7-9.7 4.5-9.7 1.6 0 2.7.7 3 2 .7 2.6 4.3 2.7 4.3.1 0-4.2-7.8-6.6-12.5-3.9zM264 316.4c0 .9 1.2 1.6 2.8 1.8l2.7.3.3 9.7c.2 9 .4 9.8 2.2 9.8 1.9 0 2-.7 2-10v-10h2.5c1.6 0 2.5-.6 2.5-1.5 0-1.2-1.5-1.5-7.5-1.5-5.8 0-7.5.3-7.5 1.4zM290 326.4c0 11 .1 11.6 2 11.6 2 0 2.1-.5 1.8-11.2-.3-9.8-.5-11.3-2-11.6-1.6-.3-1.8.7-1.8 11.2zM299.7 315.7c-.4.3-.7 5.5-.7 11.5 0 10.1.1 10.8 2 10.8 1.8 0 2-.7 2.1-6.8v-6.7l2.2 5.3c2.8 6.6 5.3 6.8 7.6.4.8-2.3 1.9-4.2 2.3-4.2.4 0 .8 2.7.8 6 0 5.4.2 6 2 6 2 0 2.1-.5 1.8-11.3-.3-10.4-.4-11.2-2.3-11.2-1.5 0-2.7 1.7-4.9 7.3-1.7 3.9-3.3 6.9-3.6 6.5-.4-.5-2-3.8-3.6-7.6-2.6-6.2-4.1-7.7-5.7-6zM330.2 316.7c-1.2 2.2-6.2 18.6-6.2 20.2 0 2.1 3.1 1.1 4-1.4.8-2 1.6-2.5 4.4-2.5 2.8 0 3.5.4 4 2.5.4 1.6 1.3 2.5 2.6 2.5 1.1 0 2-.1 2-.3-.1-.1-1.5-5.1-3.4-11.2-3.3-11.1-5.3-13.8-7.4-9.8zm4.3 12.3c.3.6-.5 1-1.9 1-2.9 0-3.1-.8-1.4-6.5l1.1-4 .8 4.3c.4 2.3 1.1 4.7 1.4 5.2zM346.8 315.6c-2.1.6-2.6 2.5-3.2 11.7-.5 8.6 1.2 11.2 7.1 11.1 6.4-.2 8.3-1.8 8.3-6.9V327h-4c-2.9 0-4 .4-4 1.5 0 .8.9 1.5 2 1.5 2.6 0 2.9 4.9.3 5.1-5.5.4-6.3-.7-6.3-8.7 0-4.2.5-6.5 1.5-7.4 1.9-1.5 6.5-.5 6.5 1.5 0 .8.9 1.5 2 1.5 2.4 0 2.7-3.2.5-5-1.6-1.3-8-2.1-10.7-1.4zM365 326.4c0 6.6.4 11.6 1 11.8.5.1 3.5.1 6.5 0 3.9-.3 5.5-.8 5.5-1.8s-1.3-1.4-4.5-1.4c-4.5 0-4.5 0-4.5-3.5 0-3.4.1-3.5 4-3.5 2.9 0 4-.4 4-1.5s-1.1-1.5-4-1.5c-3.9 0-4-.1-4-3.5 0-3.5 0-3.5 4.5-3.5s6-1.2 2.9-2.4c-.9-.3-3.8-.6-6.5-.6H365v11.4z"/></svg>