<?xml version="1.0" standalone="no"?>
<!DOCTYPE svg PUBLIC "-//W3C//DTD SVG 20010904//EN"
 "http://www.w3.org/TR/2001/REC-SVG-20010904/DTD/svg10.dtd">
<svg version="1.0" xmlns="http://www.w3.org/2000/svg"
width="15.000000pt" height="15.000000pt" viewBox="0 0 512.000000 512.000000"
 preserveAspectRatio="xMidYMid meet">

<g transform="translate(0.000000,512.000000) scale(0.100000,-0.100000)"
fill="#000000" stroke="none">
<path d="M1252 4674 c-177 -47 -320 -185 -375 -359 l-22 -70 0 -1685 0 -1685
22 -70 c55 -176 200 -313 380 -360 87 -23 2520 -22 2608 0 176 45 320 181 377
354 19 58 22 96 26 320 5 277 0 316 -45 350 -48 38 -124 22 -155 -32 -9 -16
-14 -103 -18 -297 -5 -263 -6 -277 -28 -318 -35 -66 -88 -119 -150 -149 l-57
-28 -1255 0 -1255 0 -57 28 c-62 30 -115 83 -150 149 l-23 43 0 1695 0 1695
23 43 c35 66 88 119 150 149 l57 28 948 3 947 2 0 -386 c0 -420 1 -428 57
-453 16 -7 153 -11 408 -11 l385 0 0 -165 c0 -186 9 -224 59 -249 38 -20 64
-20 102 0 53 27 59 59 59 304 0 167 -3 228 -14 253 -8 18 -207 224 -458 475
l-444 442 -1024 -1 c-854 0 -1034 -3 -1078 -15z m2413 -594 l240 -240 -248 0
-247 0 0 240 c0 132 3 240 8 240 4 0 115 -108 247 -240z"/>
<path d="M3464 3181 c-43 -26 -60 -77 -41 -123 9 -18 117 -135 246 -263 l231
-230 -855 -5 -855 -5 -26 -26 c-16 -16 -28 -41 -31 -67 -5 -37 -2 -45 30 -77
l35 -35 853 0 854 0 -237 -237 c-130 -131 -242 -251 -248 -267 -24 -65 30
-136 104 -136 40 0 45 4 383 342 226 226 346 353 353 374 7 22 7 40 0 60 -12
33 -650 677 -692 700 -37 19 -67 18 -104 -5z"/>
</g>
</svg>
